<svg width="276" height="276" viewBox="0 0 276 276" fill="none" xmlns="http://www.w3.org/2000/svg">
<path d="M235.506 108.891L216.843 76.5469C214.331 72.1957 210.695 68.5999 206.316 66.1357C201.938 63.6715 196.977 62.4295 191.954 62.5397C186.93 62.6499 182.029 64.1083 177.763 66.7622C173.496 69.416 170.022 73.1679 167.702 77.625L147.132 42.0469C144.557 37.5968 140.807 33.9406 136.294 31.4784C131.78 29.0162 126.676 27.8428 121.541 28.0866C116.405 28.3303 111.435 29.9819 107.175 32.8605C102.915 35.7391 99.5291 39.734 97.3871 44.408C92.5051 39.767 86.1151 37.0392 79.3866 36.7237C72.6581 36.4083 66.041 38.5263 60.7462 42.6901C55.4514 46.854 51.833 52.7852 50.5532 59.3984C49.2734 66.0116 50.4178 72.8646 53.7769 78.7031L57.324 84.8484C52.2971 84.6183 47.3009 85.7456 42.8599 88.112C38.4189 90.4785 34.6968 93.9968 32.0843 98.2976C29.4718 102.598 28.0653 107.523 28.0123 112.555C27.9593 117.587 29.2618 122.54 31.7832 126.895L74.9297 201.609C80.9892 212.176 89.0842 221.436 98.7461 228.853C108.408 236.27 119.445 241.697 131.219 244.821C139.093 246.948 147.212 248.035 155.369 248.055C171.631 248.027 187.599 243.722 201.672 235.573C215.745 227.424 227.427 215.717 235.546 201.627C243.665 187.536 247.935 171.558 247.928 155.296C247.921 139.034 243.637 123.06 235.506 108.977V108.891ZM232.271 175.907C228.184 191.144 219.67 204.827 207.808 215.226C195.945 225.626 181.266 232.275 165.625 234.333C149.985 236.392 134.085 233.767 119.935 226.791C105.786 219.815 94.0224 208.801 86.1315 195.141L43.0065 120.405C41.0049 116.938 40.4626 112.818 41.4988 108.951C42.535 105.084 45.0649 101.787 48.5318 99.7859C51.9988 97.7843 56.1189 97.242 59.9858 98.2782C63.8526 99.3144 67.1494 101.844 69.151 105.311L89.8726 141.234C90.7469 142.687 92.1564 143.738 93.7978 144.161C95.4392 144.585 97.1813 144.347 98.6493 143.5C100.117 142.652 101.194 141.262 101.647 139.628C102.101 137.995 101.895 136.249 101.074 134.766L64.9786 72.2344C63.9876 70.5177 63.3443 68.6226 63.0856 66.6574C62.827 64.6921 62.9579 62.6951 63.471 60.7804C64.5072 56.9136 67.0371 53.6168 70.504 51.6152C73.971 49.6137 78.0911 49.0713 81.958 50.1076C85.8248 51.1438 89.1216 53.6736 91.1232 57.1406L124.728 115.359C125.296 116.343 126.114 117.16 127.098 117.728C128.082 118.296 129.198 118.594 130.335 118.594C131.471 118.597 132.588 118.295 133.569 117.72C134.306 117.296 134.951 116.731 135.469 116.057C135.987 115.382 136.367 114.613 136.587 113.792C136.808 112.971 136.864 112.114 136.753 111.271C136.642 110.429 136.366 109.616 135.941 108.88L109.786 63.6094C107.784 60.1424 107.242 56.0223 108.278 52.1554C109.314 48.2886 111.844 44.9918 115.311 42.9902C118.778 40.9887 122.898 40.4463 126.765 41.4826C130.632 42.5188 133.928 45.0486 135.93 48.5156L172.802 112.373C164.291 120.462 158.927 131.309 157.663 142.983C156.4 154.656 159.319 166.399 165.902 176.122C166.864 177.544 168.351 178.524 170.037 178.849C171.722 179.173 173.467 178.815 174.888 177.853C176.309 176.891 177.29 175.403 177.614 173.718C177.939 172.033 177.581 170.288 176.618 168.867C171.341 161.07 169.266 151.541 170.824 142.256C172.382 132.971 177.452 124.641 184.985 118.993C186.251 118.044 187.125 116.665 187.443 115.115C187.761 113.566 187.5 111.953 186.71 110.583L179.497 98.1094C178.506 96.3927 177.863 94.4976 177.604 92.5324C177.345 90.5671 177.476 88.5701 177.989 86.6554C178.503 84.7408 179.388 82.9459 180.594 81.3734C181.801 79.8008 183.306 78.4813 185.022 77.4902C186.739 76.4992 188.634 75.8559 190.599 75.5972C192.565 75.3385 194.562 75.4695 196.476 75.9826C198.391 76.4956 200.186 77.3808 201.758 78.5875C203.331 79.7943 204.651 81.2989 205.642 83.0156L224.304 115.359C229.566 124.421 232.98 134.436 234.348 144.825C235.715 155.214 235.009 165.771 232.271 175.885V175.907ZM200.725 34.7372C201.175 33.0866 202.26 31.6811 203.743 30.8285C205.226 29.9758 206.986 29.7454 208.639 30.1875C216.598 32.2748 224.063 35.923 230.6 40.9202C237.137 45.9175 242.616 52.164 246.718 59.2969L247.074 59.9114C247.517 60.6477 247.809 61.4649 247.933 62.3153C248.057 63.1658 248.01 64.0324 247.796 64.8645C247.581 65.6967 247.202 66.4777 246.682 67.1619C246.162 67.8462 245.511 68.42 244.767 68.8497C244.023 69.2795 243.2 69.5567 242.348 69.6651C241.495 69.7734 240.63 69.7108 239.802 69.4809C238.973 69.251 238.199 68.8584 237.525 68.326C236.85 67.7936 236.288 67.1321 235.872 66.3801L235.516 65.7656C232.265 60.1073 227.923 55.1511 222.741 51.1849C217.559 47.2187 211.64 44.3215 205.329 42.6614C204.506 42.4447 203.733 42.0676 203.056 41.5517C202.378 41.0358 201.81 40.3913 201.382 39.6551C200.954 38.9189 200.676 38.1055 200.563 37.2616C200.451 36.4177 200.506 35.5598 200.725 34.7372ZM85.5169 254.125C84.4554 255.471 82.9031 256.34 81.2011 256.542C79.499 256.744 77.7863 256.263 76.4391 255.203C63.7618 245.194 53.1101 232.859 45.0549 218.859C44.1971 217.372 43.9651 215.606 44.4099 213.948C44.8547 212.29 45.9399 210.877 47.4268 210.019C48.9136 209.161 50.6804 208.929 52.3383 209.374C53.9963 209.819 55.4096 210.904 56.2674 212.391C63.4925 224.974 73.0585 236.059 84.4496 245.047C85.7937 246.11 86.6609 247.663 86.8611 249.365C87.0612 251.067 86.5777 252.779 85.5169 254.125Z" fill="#5ED0B3"/>
</svg>
